<svg width="10" height="18" viewBox="0 0 10 18" fill="none" xmlns="http://www.w3.org/2000/svg">
<path fill-rule="evenodd" clip-rule="evenodd" d="M9.5 12C9.49989 14.0702 8.2832 15.9471 6.39337 16.7923C4.50354 17.6375 2.29347 17.2931 0.750312 15.9131C0.540282 15.7374 0.442721 15.4612 0.495801 15.1925C0.548882 14.9239 0.744166 14.7055 1.00524 14.6229C1.26632 14.5402 1.55169 14.6064 1.74969 14.7956C3.2438 16.132 5.5247 16.057 6.92783 14.6254C8.33095 13.1938 8.36009 10.9119 6.99398 9.44489C5.62787 7.97792 3.34963 7.84473 1.82187 9.1425C1.57847 9.3472 1.23242 9.37613 0.958403 9.21467C0.684391 9.05322 0.542006 8.73649 0.603125 8.42437L2.015 1.35281C2.08512 1.00244 2.39268 0.750198 2.75 0.75H8.75C9.16421 0.75 9.5 1.08579 9.5 1.5C9.5 1.91421 9.16421 2.25 8.75 2.25H3.365L2.3975 7.0875C4.01028 6.4793 5.81886 6.70149 7.23645 7.68198C8.65405 8.66248 9.50006 10.2764 9.5 12Z" fill="#0D1C0D"/>
</svg>
