<svg width="20" height="21" viewBox="0 0 20 21" fill="none" xmlns="http://www.w3.org/2000/svg">
<path fill-rule="evenodd" clip-rule="evenodd" d="M19.3431 18.9694L14.6491 14.2762C17.4754 10.883 17.1329 5.86693 13.8716 2.88935C10.6103 -0.0882368 5.58384 0.0259986 2.46117 3.14867C-0.661501 6.27134 -0.775737 11.2978 2.20185 14.5591C5.17943 17.8204 10.1955 18.1629 13.5887 15.3366L18.2819 20.0306C18.5749 20.3237 19.0501 20.3237 19.3431 20.0306C19.6362 19.7376 19.6362 19.2624 19.3431 18.9694ZM1.5625 9C1.5625 5.27208 4.58458 2.25 8.3125 2.25C12.0404 2.25 15.0625 5.27208 15.0625 9C15.0625 12.7279 12.0404 15.75 8.3125 15.75C4.58629 15.7459 1.56663 12.7262 1.5625 9Z" fill="#4F964F"/>
</svg>
