<svg width="10" height="18" viewBox="0 0 10 18" fill="none" xmlns="http://www.w3.org/2000/svg">
<path fill-rule="evenodd" clip-rule="evenodd" d="M9.5 16.5C9.5 16.9142 9.16421 17.25 8.75 17.25H1.25C0.965921 17.25 0.706224 17.0895 0.57918 16.8354C0.452136 16.5813 0.479553 16.2773 0.65 16.05L7.39437 7.0575C8.04928 6.20232 8.19545 5.06168 7.77734 4.06899C7.35923 3.07631 6.44102 2.38397 5.37162 2.25506C4.30222 2.12614 3.24579 2.58043 2.60375 3.44531C2.4627 3.63287 2.34378 3.83609 2.24938 4.05094C2.14203 4.29645 1.91186 4.46604 1.64557 4.49582C1.37928 4.52561 1.11732 4.41108 0.95838 4.19536C0.799437 3.97964 0.767653 3.69551 0.875 3.45C1.56898 1.86143 3.11375 0.812748 4.84629 0.754043C6.57883 0.695337 8.19104 1.63705 8.99096 3.175C9.79088 4.71294 9.63625 6.57363 8.59344 7.95844L2.75 15.75H8.75C9.16421 15.75 9.5 16.0858 9.5 16.5Z" fill="#0D1C0D"/>
</svg>
